<?xml version="1.0" encoding="UTF-8" standalone="no"?>
<!DOCTYPE svg PUBLIC "-//W3C//DTD SVG 1.1//EN"
 "http://www.w3.org/Graphics/SVG/1.1/DTD/svg11.dtd">
<!-- Generated by graphviz version 2.38.0 (20140413.2041)
 -->
<!-- Title: controllers_diagram Pages: 1 -->
<svg width="709pt" height="671pt"
 viewBox="0.00 0.00 708.79 671.00" xmlns="http://www.w3.org/2000/svg" xmlns:xlink="http://www.w3.org/1999/xlink">
<g id="graph0" class="graph" transform="scale(1 1) rotate(0) translate(293.104 378.5)">
<title>controllers_diagram</title>
<polygon fill="none" stroke="none" points="-293.104,292.5 -293.104,-378.5 415.688,-378.5 415.688,292.5 -293.104,292.5"/>
<!-- _diagram_info -->
<g id="node1" class="node"><title>_diagram_info</title>
<text text-anchor="start" x="212.312" y="-263.1" font-family="Times,serif" font-size="13.00">Controllers diagram</text>
<text text-anchor="start" x="212.312" y="-250.1" font-family="Times,serif" font-size="13.00">Date: Nov 08 2016 &#45; 18:06</text>
<text text-anchor="start" x="212.312" y="-237.1" font-family="Times,serif" font-size="13.00">Migration version: 20160923100322</text>
<text text-anchor="start" x="212.312" y="-224.1" font-family="Times,serif" font-size="13.00">Generated by RailRoady 1.5.2</text>
<text text-anchor="start" x="212.312" y="-211.1" font-family="Times,serif" font-size="13.00">http://railroady.prestonlee.com</text>
</g>
<!-- ApplicationController -->
<g id="node2" class="node"><title>ApplicationController</title>
<path fill="none" stroke="black" d="M-260.259,169C-260.259,169 -133.741,169 -133.741,169 -127.741,169 -121.741,163 -121.741,157 -121.741,157 -121.741,51 -121.741,51 -121.741,45 -127.741,39 -133.741,39 -133.741,39 -260.259,39 -260.259,39 -266.259,39 -272.259,45 -272.259,51 -272.259,51 -272.259,157 -272.259,157 -272.259,163 -266.259,169 -260.259,169"/>
<text text-anchor="middle" x="-197" y="54.2" font-family="Times,serif" font-size="14.00">ApplicationController</text>
<polyline fill="none" stroke="black" points="-272.259,61 -121.741,61 "/>
<text text-anchor="start" x="-264.259" y="76.2" font-family="Times,serif" font-size="14.00">after_sign_in_path_for</text>
<text text-anchor="start" x="-264.259" y="90.2" font-family="Times,serif" font-size="14.00">count_unseen_activities</text>
<text text-anchor="start" x="-264.259" y="104.2" font-family="Times,serif" font-size="14.00">user_not_authorized</text>
<polyline fill="none" stroke="black" points="-272.259,111 -121.741,111 "/>
<text text-anchor="start" x="-264.259" y="126.2" font-family="Times,serif" font-size="14.00">pages_controller?</text>
<polyline fill="none" stroke="black" points="-272.259,133 -121.741,133 "/>
<text text-anchor="start" x="-264.259" y="148.2" font-family="Times,serif" font-size="14.00">_layout</text>
<text text-anchor="start" x="-264.259" y="162.2" font-family="Times,serif" font-size="14.00">skip_pundit?</text>
</g>
<!-- CommentsController -->
<g id="node3" class="node"><title>CommentsController</title>
<path fill="none" stroke="black" d="M-39.1069,-171C-39.1069,-171 71.1069,-171 71.1069,-171 77.1069,-171 83.1069,-177 83.1069,-183 83.1069,-183 83.1069,-333 83.1069,-333 83.1069,-339 77.1069,-345 71.1069,-345 71.1069,-345 -39.1069,-345 -39.1069,-345 -45.1069,-345 -51.1069,-339 -51.1069,-333 -51.1069,-333 -51.1069,-183 -51.1069,-183 -51.1069,-177 -45.1069,-171 -39.1069,-171"/>
<text text-anchor="middle" x="16" y="-329.8" font-family="Times,serif" font-size="14.00">CommentsController</text>
<polyline fill="none" stroke="black" points="-51.1069,-323 83.1069,-323 "/>
<text text-anchor="start" x="-43.1069" y="-307.8" font-family="Times,serif" font-size="14.00">create</text>
<text text-anchor="start" x="-43.1069" y="-293.8" font-family="Times,serif" font-size="14.00">download</text>
<text text-anchor="start" x="-43.1069" y="-279.8" font-family="Times,serif" font-size="14.00">update</text>
<polyline fill="none" stroke="black" points="-51.1069,-273 83.1069,-273 "/>
<polyline fill="none" stroke="black" points="-51.1069,-249 83.1069,-249 "/>
<text text-anchor="start" x="-43.1069" y="-233.8" font-family="Times,serif" font-size="14.00">_layout</text>
<text text-anchor="start" x="-43.1069" y="-219.8" font-family="Times,serif" font-size="14.00">check_mentions</text>
<text text-anchor="start" x="-43.1069" y="-205.8" font-family="Times,serif" font-size="14.00">comment_params</text>
<text text-anchor="start" x="-43.1069" y="-191.8" font-family="Times,serif" font-size="14.00">find_comment</text>
<text text-anchor="start" x="-43.1069" y="-177.8" font-family="Times,serif" font-size="14.00">find_topic</text>
</g>
<!-- GithubWebhooksController -->
<g id="node4" class="node"><title>GithubWebhooksController</title>
<path fill="none" stroke="black" d="M-242.598,-256C-242.598,-256 -95.4019,-256 -95.4019,-256 -89.4019,-256 -83.4019,-262 -83.4019,-268 -83.4019,-268 -83.4019,-362 -83.4019,-362 -83.4019,-368 -89.4019,-374 -95.4019,-374 -95.4019,-374 -242.598,-374 -242.598,-374 -248.598,-374 -254.598,-368 -254.598,-362 -254.598,-362 -254.598,-268 -254.598,-268 -254.598,-262 -248.598,-256 -242.598,-256"/>
<text text-anchor="middle" x="-169" y="-358.8" font-family="Times,serif" font-size="14.00">GithubWebhooksController</text>
<polyline fill="none" stroke="black" points="-254.598,-352 -83.4019,-352 "/>
<text text-anchor="start" x="-246.598" y="-336.8" font-family="Times,serif" font-size="14.00">github_create</text>
<text text-anchor="start" x="-246.598" y="-322.8" font-family="Times,serif" font-size="14.00">github_push</text>
<text text-anchor="start" x="-246.598" y="-308.8" font-family="Times,serif" font-size="14.00">webhook_secret</text>
<polyline fill="none" stroke="black" points="-254.598,-302 -83.4019,-302 "/>
<polyline fill="none" stroke="black" points="-254.598,-278 -83.4019,-278 "/>
<text text-anchor="start" x="-246.598" y="-262.8" font-family="Times,serif" font-size="14.00">_layout</text>
</g>
<!-- MeetingsController -->
<g id="node5" class="node"><title>MeetingsController</title>
<path fill="none" stroke="black" d="M-225.824,-1C-225.824,-1 -124.176,-1 -124.176,-1 -118.176,-1 -112.176,-7 -112.176,-13 -112.176,-13 -112.176,-135 -112.176,-135 -112.176,-141 -118.176,-147 -124.176,-147 -124.176,-147 -225.824,-147 -225.824,-147 -231.824,-147 -237.824,-141 -237.824,-135 -237.824,-135 -237.824,-13 -237.824,-13 -237.824,-7 -231.824,-1 -225.824,-1"/>
<text text-anchor="middle" x="-175" y="-131.8" font-family="Times,serif" font-size="14.00">MeetingsController</text>
<polyline fill="none" stroke="black" points="-237.824,-125 -112.176,-125 "/>
<text text-anchor="start" x="-229.824" y="-109.8" font-family="Times,serif" font-size="14.00">create</text>
<text text-anchor="start" x="-229.824" y="-95.8" font-family="Times,serif" font-size="14.00">index</text>
<text text-anchor="start" x="-229.824" y="-81.8" font-family="Times,serif" font-size="14.00">update</text>
<polyline fill="none" stroke="black" points="-237.824,-75 -112.176,-75 "/>
<polyline fill="none" stroke="black" points="-237.824,-51 -112.176,-51 "/>
<text text-anchor="start" x="-229.824" y="-35.8" font-family="Times,serif" font-size="14.00">_layout</text>
<text text-anchor="start" x="-229.824" y="-21.8" font-family="Times,serif" font-size="14.00">deduce_hours</text>
<text text-anchor="start" x="-229.824" y="-7.8" font-family="Times,serif" font-size="14.00">meeting_params</text>
</g>
<!-- OrdersController -->
<g id="node6" class="node"><title>OrdersController</title>
<path fill="none" stroke="black" d="M301.179,-1C301.179,-1 388.821,-1 388.821,-1 394.821,-1 400.821,-7 400.821,-13 400.821,-13 400.821,-135 400.821,-135 400.821,-141 394.821,-147 388.821,-147 388.821,-147 301.179,-147 301.179,-147 295.179,-147 289.179,-141 289.179,-135 289.179,-135 289.179,-13 289.179,-13 289.179,-7 295.179,-1 301.179,-1"/>
<text text-anchor="middle" x="345" y="-131.8" font-family="Times,serif" font-size="14.00">OrdersController</text>
<polyline fill="none" stroke="black" points="289.179,-125 400.821,-125 "/>
<text text-anchor="start" x="297.179" y="-109.8" font-family="Times,serif" font-size="14.00">create</text>
<text text-anchor="start" x="297.179" y="-95.8" font-family="Times,serif" font-size="14.00">update</text>
<polyline fill="none" stroke="black" points="289.179,-89 400.821,-89 "/>
<polyline fill="none" stroke="black" points="289.179,-65 400.821,-65 "/>
<text text-anchor="start" x="297.179" y="-49.8" font-family="Times,serif" font-size="14.00">_layout</text>
<text text-anchor="start" x="297.179" y="-35.8" font-family="Times,serif" font-size="14.00">find_order</text>
<text text-anchor="start" x="297.179" y="-21.8" font-family="Times,serif" font-size="14.00">find_project</text>
<text text-anchor="start" x="297.179" y="-7.8" font-family="Times,serif" font-size="14.00">order_params</text>
</g>
<!-- PagesController -->
<g id="node7" class="node"><title>PagesController</title>
<path fill="none" stroke="black" d="M-277.104,288C-277.104,288 -194.896,288 -194.896,288 -188.896,288 -182.896,282 -182.896,276 -182.896,276 -182.896,210 -182.896,210 -182.896,204 -188.896,198 -194.896,198 -194.896,198 -277.104,198 -277.104,198 -283.104,198 -289.104,204 -289.104,210 -289.104,210 -289.104,276 -289.104,276 -289.104,282 -283.104,288 -277.104,288"/>
<text text-anchor="middle" x="-236" y="213.2" font-family="Times,serif" font-size="14.00">PagesController</text>
<polyline fill="none" stroke="black" points="-289.104,220 -182.896,220 "/>
<text text-anchor="start" x="-281.104" y="235.2" font-family="Times,serif" font-size="14.00">home</text>
<polyline fill="none" stroke="black" points="-289.104,242 -182.896,242 "/>
<polyline fill="none" stroke="black" points="-289.104,266 -182.896,266 "/>
<text text-anchor="start" x="-281.104" y="281.2" font-family="Times,serif" font-size="14.00">_layout</text>
</g>
<!-- ProjectStatesController -->
<g id="node8" class="node"><title>ProjectStatesController</title>
<path fill="none" stroke="black" d="M131.307,271C131.307,271 268.693,271 268.693,271 274.693,271 280.693,265 280.693,259 280.693,259 280.693,165 280.693,165 280.693,159 274.693,153 268.693,153 268.693,153 131.307,153 131.307,153 125.307,153 119.307,159 119.307,165 119.307,165 119.307,259 119.307,259 119.307,265 125.307,271 131.307,271"/>
<text text-anchor="middle" x="200" y="168.2" font-family="Times,serif" font-size="14.00">ProjectStatesController</text>
<polyline fill="none" stroke="black" points="119.307,175 280.693,175 "/>
<text text-anchor="start" x="127.307" y="190.2" font-family="Times,serif" font-size="14.00">update</text>
<polyline fill="none" stroke="black" points="119.307,197 280.693,197 "/>
<polyline fill="none" stroke="black" points="119.307,221 280.693,221 "/>
<text text-anchor="start" x="127.307" y="236.2" font-family="Times,serif" font-size="14.00">_layout</text>
<text text-anchor="start" x="127.307" y="250.2" font-family="Times,serif" font-size="14.00">get_state_useful_resource</text>
<text text-anchor="start" x="127.307" y="264.2" font-family="Times,serif" font-size="14.00">project_state_params</text>
</g>
<!-- ProjectsController -->
<g id="node9" class="node"><title>ProjectsController</title>
<path fill="none" stroke="black" d="M-73.4531,135C-73.4531,135 71.4531,135 71.4531,135 77.4531,135 83.4531,129 83.4531,123 83.4531,123 83.4531,-125 83.4531,-125 83.4531,-131 77.4531,-137 71.4531,-137 71.4531,-137 -73.4531,-137 -73.4531,-137 -79.4531,-137 -85.4531,-131 -85.4531,-125 -85.4531,-125 -85.4531,123 -85.4531,123 -85.4531,129 -79.4531,135 -73.4531,135"/>
<text text-anchor="middle" x="-1" y="-121.8" font-family="Times,serif" font-size="14.00">ProjectsController</text>
<polyline fill="none" stroke="black" points="-85.4531,-115 83.4531,-115 "/>
<text text-anchor="start" x="-77.4531" y="-99.8" font-family="Times,serif" font-size="14.00">create</text>
<text text-anchor="start" x="-77.4531" y="-85.8" font-family="Times,serif" font-size="14.00">edit</text>
<text text-anchor="start" x="-77.4531" y="-71.8" font-family="Times,serif" font-size="14.00">index</text>
<text text-anchor="start" x="-77.4531" y="-57.8" font-family="Times,serif" font-size="14.00">new</text>
<text text-anchor="start" x="-77.4531" y="-43.8" font-family="Times,serif" font-size="14.00">show</text>
<text text-anchor="start" x="-77.4531" y="-29.8" font-family="Times,serif" font-size="14.00">update</text>
<polyline fill="none" stroke="black" points="-85.4531,-23 83.4531,-23 "/>
<polyline fill="none" stroke="black" points="-85.4531,1 83.4531,1 "/>
<text text-anchor="start" x="-77.4531" y="16.2" font-family="Times,serif" font-size="14.00">temporary_affect_all_users</text>
<text text-anchor="start" x="-77.4531" y="30.2" font-family="Times,serif" font-size="14.00">build_spec_fields</text>
<text text-anchor="start" x="-77.4531" y="44.2" font-family="Times,serif" font-size="14.00">find_project</text>
<text text-anchor="start" x="-77.4531" y="58.2" font-family="Times,serif" font-size="14.00">handle_pull_request</text>
<text text-anchor="start" x="-77.4531" y="72.2" font-family="Times,serif" font-size="14.00">manage_file_upload</text>
<text text-anchor="start" x="-77.4531" y="86.2" font-family="Times,serif" font-size="14.00">mark_notif_as_seen</text>
<text text-anchor="start" x="-77.4531" y="100.2" font-family="Times,serif" font-size="14.00">project_params</text>
<text text-anchor="start" x="-77.4531" y="114.2" font-family="Times,serif" font-size="14.00">project_update_params</text>
<text text-anchor="start" x="-77.4531" y="128.2" font-family="Times,serif" font-size="14.00">_layout</text>
</g>
<!-- RepositoriesController -->
<g id="node10" class="node"><title>RepositoriesController</title>
<path fill="none" stroke="black" d="M-72.769,254C-72.769,254 46.769,254 46.769,254 52.769,254 58.769,248 58.769,242 58.769,242 58.769,176 58.769,176 58.769,170 52.769,164 46.769,164 46.769,164 -72.769,164 -72.769,164 -78.769,164 -84.769,170 -84.769,176 -84.769,176 -84.769,242 -84.769,242 -84.769,248 -78.769,254 -72.769,254"/>
<text text-anchor="middle" x="-13" y="179.2" font-family="Times,serif" font-size="14.00">RepositoriesController</text>
<polyline fill="none" stroke="black" points="-84.769,186 58.769,186 "/>
<text text-anchor="start" x="-76.769" y="201.2" font-family="Times,serif" font-size="14.00">show</text>
<polyline fill="none" stroke="black" points="-84.769,208 58.769,208 "/>
<polyline fill="none" stroke="black" points="-84.769,232 58.769,232 "/>
<text text-anchor="start" x="-76.769" y="247.2" font-family="Times,serif" font-size="14.00">_layout</text>
</g>
<!-- TopicsController -->
<g id="node11" class="node"><title>TopicsController</title>
<path fill="none" stroke="black" d="M131.131,-1C131.131,-1 242.869,-1 242.869,-1 248.869,-1 254.869,-7 254.869,-13 254.869,-13 254.869,-163 254.869,-163 254.869,-169 248.869,-175 242.869,-175 242.869,-175 131.131,-175 131.131,-175 125.131,-175 119.131,-169 119.131,-163 119.131,-163 119.131,-13 119.131,-13 119.131,-7 125.131,-1 131.131,-1"/>
<text text-anchor="middle" x="187" y="-159.8" font-family="Times,serif" font-size="14.00">TopicsController</text>
<polyline fill="none" stroke="black" points="119.131,-153 254.869,-153 "/>
<text text-anchor="start" x="127.131" y="-137.8" font-family="Times,serif" font-size="14.00">create</text>
<text text-anchor="start" x="127.131" y="-123.8" font-family="Times,serif" font-size="14.00">show</text>
<text text-anchor="start" x="127.131" y="-109.8" font-family="Times,serif" font-size="14.00">update</text>
<polyline fill="none" stroke="black" points="119.131,-103 254.869,-103 "/>
<polyline fill="none" stroke="black" points="119.131,-79 254.869,-79 "/>
<text text-anchor="start" x="127.131" y="-63.8" font-family="Times,serif" font-size="14.00">_layout</text>
<text text-anchor="start" x="127.131" y="-49.8" font-family="Times,serif" font-size="14.00">edit_state</text>
<text text-anchor="start" x="127.131" y="-35.8" font-family="Times,serif" font-size="14.00">find_project</text>
<text text-anchor="start" x="127.131" y="-21.8" font-family="Times,serif" font-size="14.00">topic_params</text>
<text text-anchor="start" x="127.131" y="-7.8" font-family="Times,serif" font-size="14.00">topic_update_params</text>
</g>
<!-- Users::OmniauthCallbacksController -->
<g id="node12" class="node"><title>Users::OmniauthCallbacksController</title>
<path fill="none" stroke="black" d="M130.796,118C130.796,118 331.204,118 331.204,118 337.204,118 343.204,112 343.204,106 343.204,106 343.204,40 343.204,40 343.204,34 337.204,28 331.204,28 331.204,28 130.796,28 130.796,28 124.796,28 118.796,34 118.796,40 118.796,40 118.796,106 118.796,106 118.796,112 124.796,118 130.796,118"/>
<text text-anchor="middle" x="231" y="43.2" font-family="Times,serif" font-size="14.00">Users::OmniauthCallbacksController</text>
<polyline fill="none" stroke="black" points="118.796,50 343.204,50 "/>
<text text-anchor="start" x="126.796" y="65.2" font-family="Times,serif" font-size="14.00">github</text>
<polyline fill="none" stroke="black" points="118.796,72 343.204,72 "/>
<polyline fill="none" stroke="black" points="118.796,96 343.204,96 "/>
<text text-anchor="start" x="126.796" y="111.2" font-family="Times,serif" font-size="14.00">_layout</text>
</g>
</g>
</svg>
