<?xml version="1.0" encoding="UTF-8" standalone="no"?>
<!DOCTYPE svg PUBLIC "-//W3C//DTD SVG 1.1//EN"
 "http://www.w3.org/Graphics/SVG/1.1/DTD/svg11.dtd">
<!-- Generated by graphviz version 2.38.0 (20140413.2041)
 -->
<!-- Title: models_diagram Pages: 1 -->
<svg width="1479pt" height="447pt"
 viewBox="0.00 0.00 1479.06 447.00" xmlns="http://www.w3.org/2000/svg" xmlns:xlink="http://www.w3.org/1999/xlink">
<g id="graph0" class="graph" transform="scale(1 1) rotate(0) translate(4 443)">
<title>models_diagram</title>
<polygon fill="none" stroke="none" points="-4,4 -4,-443 1475.06,-443 1475.06,4 -4,4"/>
<!-- _diagram_info -->
<g id="node1" class="node"><title>_diagram_info</title>
<text text-anchor="start" x="214.166" y="-424.6" font-family="Times,serif" font-size="13.00">Models diagram</text>
<text text-anchor="start" x="214.166" y="-411.6" font-family="Times,serif" font-size="13.00">Date: Nov 08 2016 &#45; 18:06</text>
<text text-anchor="start" x="214.166" y="-398.6" font-family="Times,serif" font-size="13.00">Migration version: 20160923100322</text>
<text text-anchor="start" x="214.166" y="-385.6" font-family="Times,serif" font-size="13.00">Generated by RailRoady 1.5.2</text>
<text text-anchor="start" x="214.166" y="-372.6" font-family="Times,serif" font-size="13.00">http://railroady.prestonlee.com</text>
</g>
<!-- ApplicationRecord -->
<g id="node2" class="node"><title>ApplicationRecord</title>
<ellipse fill="none" stroke="black" cx="508.854" cy="-402.5" rx="77.2916" ry="18"/>
<text text-anchor="middle" x="508.854" y="-398.3" font-family="Times,serif" font-size="14.00">ApplicationRecord</text>
</g>
<!-- Attendee -->
<g id="node3" class="node"><title>Attendee</title>
<ellipse fill="none" stroke="black" cx="163.854" cy="-104" rx="42.0524" ry="18"/>
<text text-anchor="middle" x="163.854" y="-99.8" font-family="Times,serif" font-size="14.00">Attendee</text>
</g>
<!-- Comment -->
<g id="node4" class="node"><title>Comment</title>
<ellipse fill="none" stroke="black" cx="306.854" cy="-104" rx="44.9768" ry="18"/>
<text text-anchor="middle" x="306.854" y="-99.8" font-family="Times,serif" font-size="14.00">Comment</text>
</g>
<!-- Mention -->
<g id="node6" class="node"><title>Mention</title>
<ellipse fill="none" stroke="black" cx="259.854" cy="-18" rx="40.149" ry="18"/>
<text text-anchor="middle" x="259.854" y="-13.8" font-family="Times,serif" font-size="14.00">Mention</text>
</g>
<!-- Comment&#45;&gt;Mention -->
<g id="edge1" class="edge"><title>Comment&#45;&gt;Mention</title>
<path fill="none" stroke="#dbe560" d="M293.261,-78.7056C287.289,-68.0331 280.273,-55.4934 274.216,-44.6683"/>
<ellipse fill="none" stroke="#dbe560" cx="295.39" cy="-82.5106" rx="4.00002" ry="4.00002"/>
<polygon fill="#dbe560" stroke="#dbe560" points="274.074,-44.4135 273.118,-33.4894 271.632,-40.0501 269.191,-35.6867 269.191,-35.6867 269.191,-35.6867 271.632,-40.0501 265.264,-37.884 274.074,-44.4135 274.074,-44.4135"/>
</g>
<!-- User -->
<g id="node23" class="node"><title>User</title>
<ellipse fill="none" stroke="black" cx="239.854" cy="-190" rx="27" ry="18"/>
<text text-anchor="middle" x="239.854" y="-185.8" font-family="Times,serif" font-size="14.00">User</text>
</g>
<!-- Comment&#45;&gt;User -->
<g id="edge2" class="edge"><title>Comment&#45;&gt;User</title>
<path fill="none" stroke="#fb028d" d="M288.704,-129.654C282.794,-137.514 276.137,-146.194 269.854,-154 266.552,-158.103 262.965,-162.41 259.457,-166.544"/>
<polygon fill="#fb028d" stroke="#fb028d" points="288.788,-129.541 298.377,-124.22 291.779,-125.535 294.771,-121.528 294.771,-121.528 294.771,-121.528 291.779,-125.535 291.164,-118.836 288.788,-129.541 288.788,-129.541"/>
<polygon fill="#fb028d" stroke="#fb028d" points="259.417,-166.592 249.491,-171.254 256.162,-170.387 252.907,-174.183 252.907,-174.183 252.907,-174.183 256.162,-170.387 256.323,-177.112 259.417,-166.592 259.417,-166.592"/>
<text text-anchor="middle" x="307.065" y="-142.8" font-family="Times,serif" font-size="14.00">recipients</text>
</g>
<!-- Attachinary::File -->
<g id="node24" class="node"><title>Attachinary::File</title>
<ellipse fill="none" stroke="black" cx="894.854" cy="-18" rx="70.5427" ry="18"/>
<text text-anchor="middle" x="894.854" y="-13.8" font-family="Times,serif" font-size="14.00">Attachinary::File</text>
</g>
<!-- Comment&#45;&gt;Attachinary::File -->
<g id="edge3" class="edge"><title>Comment&#45;&gt;Attachinary::File</title>
<path fill="none" stroke="#2ad848" d="M356.793,-95.8659C461.539,-80.9022 704.442,-46.2018 824.746,-29.0154"/>
<ellipse fill="none" stroke="#2ad848" cx="352.63" cy="-96.4605" rx="4.00001" ry="4.00001"/>
<polygon fill="#2ad848" stroke="#2ad848" points="825.047,-28.9725 835.583,-32.013 829.997,-28.2654 834.947,-27.5582 834.947,-27.5582 834.947,-27.5582 829.997,-28.2654 834.31,-23.1035 825.047,-28.9725 825.047,-28.9725"/>
<text text-anchor="middle" x="681.73" y="-56.8" font-family="Times,serif" font-size="14.00">attachment_files</text>
</g>
<!-- Meeting -->
<g id="node5" class="node"><title>Meeting</title>
<ellipse fill="none" stroke="black" cx="171.854" cy="-298" rx="39.6558" ry="18"/>
<text text-anchor="middle" x="171.854" y="-293.8" font-family="Times,serif" font-size="14.00">Meeting</text>
</g>
<!-- Meeting&#45;&gt;Attendee -->
<g id="edge4" class="edge"><title>Meeting&#45;&gt;Attendee</title>
<path fill="none" stroke="#07f270" d="M157.205,-273.441C147.307,-256.075 135.118,-231.487 129.854,-208 126.355,-192.387 126.132,-187.561 129.854,-172 133.361,-157.342 140.628,-142.266 147.548,-130.136"/>
<ellipse fill="none" stroke="#07f270" cx="159.263" cy="-276.963" rx="4.00002" ry="4.00002"/>
<polygon fill="#07f270" stroke="#07f270" points="147.581,-130.08 156.568,-123.795 150.142,-125.785 152.703,-121.491 152.703,-121.491 152.703,-121.491 150.142,-125.785 148.838,-119.186 147.581,-130.08 147.581,-130.08"/>
</g>
<!-- Meeting&#45;&gt;User -->
<g id="edge5" class="edge"><title>Meeting&#45;&gt;User</title>
<path fill="none" stroke="#e1326a" d="M188.049,-271.754C198.975,-254.723 213.317,-232.366 224.141,-215.495"/>
<polygon fill="#e1326a" stroke="#e1326a" points="187.879,-272.021 178.692,-278.008 185.179,-276.229 182.479,-280.438 182.479,-280.438 182.479,-280.438 185.179,-276.229 186.267,-282.867 187.879,-272.021 187.879,-272.021"/>
<polygon fill="#e1326a" stroke="#e1326a" points="224.348,-215.172 233.535,-209.185 227.048,-210.963 229.747,-206.755 229.747,-206.755 229.747,-206.755 227.048,-210.963 225.96,-204.325 224.348,-215.172 224.348,-215.172"/>
</g>
<!-- Order -->
<g id="node7" class="node"><title>Order</title>
<ellipse fill="none" stroke="black" cx="381.854" cy="-298" rx="30.9619" ry="18"/>
<text text-anchor="middle" x="381.854" y="-293.8" font-family="Times,serif" font-size="14.00">Order</text>
</g>
<!-- OrderLine -->
<g id="node8" class="node"><title>OrderLine</title>
<ellipse fill="none" stroke="black" cx="493.854" cy="-190" rx="46.8719" ry="18"/>
<text text-anchor="middle" x="493.854" y="-185.8" font-family="Times,serif" font-size="14.00">OrderLine</text>
</g>
<!-- Order&#45;&gt;OrderLine -->
<g id="edge6" class="edge"><title>Order&#45;&gt;OrderLine</title>
<path fill="none" stroke="#446efc" d="M403.432,-276.578C422.361,-258.663 449.861,-232.637 469.557,-213.995"/>
<ellipse fill="none" stroke="#446efc" cx="400.333" cy="-279.512" rx="4.00002" ry="4.00002"/>
<polygon fill="#446efc" stroke="#446efc" points="469.687,-213.872 480.043,-210.267 473.319,-210.435 476.95,-206.998 476.95,-206.998 476.95,-206.998 473.319,-210.435 473.857,-203.73 469.687,-213.872 469.687,-213.872"/>
</g>
<!-- Project::ExternalInput -->
<g id="node9" class="node"><title>Project::ExternalInput</title>
<polygon fill="none" stroke="black" stroke-dasharray="1,5" points="833.262,-420.5 692.446,-420.5 692.446,-384.5 833.262,-384.5 833.262,-420.5"/>
<text text-anchor="middle" x="762.854" y="-398.3" font-family="Times,serif" font-size="14.00">Project::ExternalInput</text>
</g>
<!-- Project -->
<g id="node10" class="node"><title>Project</title>
<ellipse fill="none" stroke="black" cx="639.854" cy="-402.5" rx="35.3129" ry="18"/>
<text text-anchor="middle" x="639.854" y="-398.3" font-family="Times,serif" font-size="14.00">Project</text>
</g>
<!-- Project&#45;&gt;Meeting -->
<g id="edge18" class="edge"><title>Project&#45;&gt;Meeting</title>
<path fill="none" stroke="#332547" d="M618.989,-380.674C611.902,-374.867 603.559,-369.26 594.854,-366 517.971,-337.207 301.699,-379.426 225.854,-348 212.75,-342.57 200.772,-332.507 191.445,-322.906"/>
<ellipse fill="none" stroke="#332547" cx="622.099" cy="-383.378" rx="4.00002" ry="4.00002"/>
<polygon fill="#332547" stroke="#332547" points="191.322,-322.772 187.879,-312.361 187.942,-319.087 184.562,-315.403 184.562,-315.403 184.562,-315.403 187.942,-319.087 181.246,-318.445 191.322,-322.772 191.322,-322.772"/>
</g>
<!-- Project&#45;&gt;Order -->
<g id="edge20" class="edge"><title>Project&#45;&gt;Order</title>
<path fill="none" stroke="#6f94e1" d="M616.205,-379.597C609.675,-374.49 602.321,-369.522 594.854,-366 560.715,-349.897 548.156,-358.344 511.854,-348 471.026,-336.366 461.408,-331.421 421.854,-316 419.659,-315.144 417.405,-314.245 415.138,-313.324"/>
<polygon fill="#6f94e1" stroke="#6f94e1" points="616.281,-379.66 621.11,-389.506 620.131,-382.851 623.981,-386.041 623.981,-386.041 623.981,-386.041 620.131,-382.851 626.852,-382.576 616.281,-379.66 616.281,-379.66"/>
<polygon fill="#6f94e1" stroke="#6f94e1" points="415.11,-313.312 407.594,-305.327 410.49,-311.398 405.871,-309.484 405.871,-309.484 405.871,-309.484 410.49,-311.398 404.149,-313.642 415.11,-313.312 415.11,-313.312"/>
</g>
<!-- Project&#45;&gt;OrderLine -->
<g id="edge19" class="edge"><title>Project&#45;&gt;OrderLine</title>
<path fill="none" stroke="#59ac17" d="M618.453,-380.854C611.435,-375.167 603.265,-369.583 594.854,-366 489.406,-321.074 411.96,-406.679 341.854,-316 304.814,-268.091 391.929,-226.601 449.034,-205.609"/>
<ellipse fill="none" stroke="#59ac17" cx="621.505" cy="-383.456" rx="4.00002" ry="4.00002"/>
<polygon fill="#59ac17" stroke="#59ac17" points="449.2,-205.549 460.132,-206.41 453.907,-203.861 458.613,-202.174 458.613,-202.174 458.613,-202.174 453.907,-203.861 457.094,-197.938 449.2,-205.549 449.2,-205.549"/>
</g>
<!-- ProjectTransition -->
<g id="node11" class="node"><title>ProjectTransition</title>
<ellipse fill="none" stroke="black" cx="501.854" cy="-298" rx="71.3991" ry="18"/>
<text text-anchor="middle" x="501.854" y="-293.8" font-family="Times,serif" font-size="14.00">ProjectTransition</text>
</g>
<!-- Project&#45;&gt;ProjectTransition -->
<g id="edge21" class="edge"><title>Project&#45;&gt;ProjectTransition</title>
<path fill="none" stroke="#12d7eb" d="M617.372,-380.881C610.525,-375.425 602.72,-369.961 594.854,-366 567.571,-352.262 552.491,-366.937 528.523,-348 521.204,-342.217 515.617,-333.85 511.495,-325.661"/>
<ellipse fill="none" stroke="#12d7eb" cx="620.789" cy="-383.721" rx="4.00002" ry="4.00002"/>
<polygon fill="#12d7eb" stroke="#12d7eb" points="511.391,-325.428 511.422,-314.462 509.352,-320.862 507.314,-316.297 507.314,-316.297 507.314,-316.297 509.352,-320.862 503.205,-318.132 511.391,-325.428 511.391,-325.428"/>
<text text-anchor="middle" x="557.02" y="-336.8" font-family="Times,serif" font-size="14.00">transitions</text>
</g>
<!-- ProjectUser -->
<g id="node12" class="node"><title>ProjectUser</title>
<ellipse fill="none" stroke="black" cx="51.8542" cy="-104" rx="51.7088" ry="18"/>
<text text-anchor="middle" x="51.8542" y="-99.8" font-family="Times,serif" font-size="14.00">ProjectUser</text>
</g>
<!-- Project&#45;&gt;ProjectUser -->
<g id="edge8" class="edge"><title>Project&#45;&gt;ProjectUser</title>
<path fill="none" stroke="#92e398" d="M618.995,-380.658C611.908,-374.849 603.564,-369.246 594.854,-366 496.019,-329.166 194.809,-393.121 122.854,-316 73.8935,-263.524 58.6047,-176.161 53.8998,-132.131"/>
<ellipse fill="none" stroke="#92e398" cx="622.106" cy="-383.363" rx="4.00002" ry="4.00002"/>
<polygon fill="#92e398" stroke="#92e398" points="53.8989,-132.121 57.4181,-121.735 53.4189,-127.144 52.9389,-122.167 52.9389,-122.167 52.9389,-122.167 53.4189,-127.144 48.4597,-122.599 53.8989,-132.121 53.8989,-132.121"/>
</g>
<!-- Dimension -->
<g id="node13" class="node"><title>Dimension</title>
<ellipse fill="none" stroke="black" cx="677.854" cy="-298" rx="48.8359" ry="18"/>
<text text-anchor="middle" x="677.854" y="-293.8" font-family="Times,serif" font-size="14.00">Dimension</text>
</g>
<!-- Project&#45;&gt;Dimension -->
<g id="edge15" class="edge"><title>Project&#45;&gt;Dimension</title>
<path fill="none" stroke="#b0176b" d="M648.955,-376.952C654.904,-360.904 662.651,-340.009 668.626,-323.892"/>
<ellipse fill="none" stroke="#b0176b" cx="647.52" cy="-380.824" rx="4.00001" ry="4.00001"/>
<ellipse fill="#b0176b" stroke="#b0176b" cx="670.179" cy="-319.701" rx="4.00001" ry="4.00001"/>
</g>
<!-- HeatTreatment -->
<g id="node14" class="node"><title>HeatTreatment</title>
<ellipse fill="none" stroke="black" cx="807.854" cy="-298" rx="62.6621" ry="18"/>
<text text-anchor="middle" x="807.854" y="-293.8" font-family="Times,serif" font-size="14.00">HeatTreatment</text>
</g>
<!-- Project&#45;&gt;HeatTreatment -->
<g id="edge13" class="edge"><title>Project&#45;&gt;HeatTreatment</title>
<path fill="none" stroke="#baf2bf" d="M663.111,-381.421C669.64,-376.152 676.868,-370.649 683.854,-366 711.481,-347.617 744.635,-329.909 769.708,-317.319"/>
<ellipse fill="none" stroke="#baf2bf" cx="659.94" cy="-384.03" rx="4.00002" ry="4.00002"/>
<ellipse fill="#baf2bf" stroke="#baf2bf" cx="773.303" cy="-315.528" rx="4.00002" ry="4.00002"/>
</g>
<!-- Material -->
<g id="node15" class="node"><title>Material</title>
<ellipse fill="none" stroke="black" cx="928.854" cy="-298" rx="40.123" ry="18"/>
<text text-anchor="middle" x="928.854" y="-293.8" font-family="Times,serif" font-size="14.00">Material</text>
</g>
<!-- Project&#45;&gt;Material -->
<g id="edge12" class="edge"><title>Project&#45;&gt;Material</title>
<path fill="none" stroke="#8ca62f" d="M661.74,-380.79C668.432,-375.333 676.087,-369.89 683.854,-366 703.95,-355.935 858.329,-322.467 879.854,-316 883.49,-314.908 887.256,-313.714 891.013,-312.483"/>
<ellipse fill="none" stroke="#8ca62f" cx="658.443" cy="-383.601" rx="4.00002" ry="4.00002"/>
<ellipse fill="#8ca62f" stroke="#8ca62f" cx="894.87" cy="-311.191" rx="4.00001" ry="4.00001"/>
</g>
<!-- Purpose -->
<g id="node16" class="node"><title>Purpose</title>
<ellipse fill="none" stroke="black" cx="1025.85" cy="-298" rx="38.7042" ry="18"/>
<text text-anchor="middle" x="1025.85" y="-293.8" font-family="Times,serif" font-size="14.00">Purpose</text>
</g>
<!-- Project&#45;&gt;Purpose -->
<g id="edge11" class="edge"><title>Project&#45;&gt;Purpose</title>
<path fill="none" stroke="#64f279" d="M661.205,-380.658C667.972,-375.096 675.801,-369.631 683.854,-366 727.417,-346.36 742.745,-356.009 789.854,-348 873.413,-333.794 895.827,-337.338 977.854,-316 981.613,-315.022 985.496,-313.879 989.349,-312.657"/>
<ellipse fill="none" stroke="#64f279" cx="657.846" cy="-383.568" rx="4.00002" ry="4.00002"/>
<ellipse fill="#64f279" stroke="#64f279" cx="993.371" cy="-311.322" rx="4.00001" ry="4.00001"/>
</g>
<!-- QualityControl -->
<g id="node17" class="node"><title>QualityControl</title>
<ellipse fill="none" stroke="black" cx="1145.85" cy="-298" rx="63.8115" ry="18"/>
<text text-anchor="middle" x="1145.85" y="-293.8" font-family="Times,serif" font-size="14.00">QualityControl</text>
</g>
<!-- Project&#45;&gt;QualityControl -->
<g id="edge16" class="edge"><title>Project&#45;&gt;QualityControl</title>
<path fill="none" stroke="#b6825d" d="M661.069,-380.343C667.832,-374.773 675.693,-369.381 683.854,-366 753.229,-337.255 777.346,-357.358 851.854,-348 950.763,-335.577 975.915,-334.583 1073.85,-316 1079.67,-314.897 1085.72,-313.641 1091.74,-312.322"/>
<ellipse fill="none" stroke="#b6825d" cx="657.714" cy="-383.274" rx="4.00002" ry="4.00002"/>
<ellipse fill="#b6825d" stroke="#b6825d" cx="1095.99" cy="-311.368" rx="4.00001" ry="4.00001"/>
</g>
<!-- Surface -->
<g id="node18" class="node"><title>Surface</title>
<ellipse fill="none" stroke="black" cx="1264.85" cy="-298" rx="37.2248" ry="18"/>
<text text-anchor="middle" x="1264.85" y="-293.8" font-family="Times,serif" font-size="14.00">Surface</text>
</g>
<!-- Project&#45;&gt;Surface -->
<g id="edge14" class="edge"><title>Project&#45;&gt;Surface</title>
<path fill="none" stroke="#2fa015" d="M661.004,-380.184C667.766,-374.609 675.642,-369.255 683.854,-366 732.957,-346.539 868.256,-352.82 920.854,-348 1053.5,-335.843 1089.17,-346.431 1218.85,-316 1222.4,-315.168 1226.05,-314.139 1229.66,-313.003"/>
<ellipse fill="none" stroke="#2fa015" cx="657.651" cy="-383.125" rx="4.00002" ry="4.00002"/>
<ellipse fill="#2fa015" stroke="#2fa015" cx="1233.67" cy="-311.653" rx="4.00001" ry="4.00001"/>
</g>
<!-- Spec -->
<g id="node19" class="node"><title>Spec</title>
<ellipse fill="none" stroke="black" cx="1346.85" cy="-298" rx="27.0958" ry="18"/>
<text text-anchor="middle" x="1346.85" y="-293.8" font-family="Times,serif" font-size="14.00">Spec</text>
</g>
<!-- Project&#45;&gt;Spec -->
<g id="edge10" class="edge"><title>Project&#45;&gt;Spec</title>
<path fill="none" stroke="#d95bea" d="M660.192,-380.69C667.118,-374.884 675.29,-369.273 683.854,-366 756.81,-338.117 957.023,-354.501 1034.85,-348 1157.91,-337.721 1192.12,-349.925 1310.85,-316 1312.8,-315.445 1314.77,-314.794 1316.73,-314.078"/>
<ellipse fill="none" stroke="#d95bea" cx="657.194" cy="-383.358" rx="4.00002" ry="4.00002"/>
<polygon fill="#d95bea" stroke="#d95bea" points="1317.13,-313.914 1328.09,-314.235 1321.74,-311.996 1326.36,-310.079 1326.36,-310.079 1326.36,-310.079 1321.74,-311.996 1324.64,-305.923 1317.13,-313.914 1317.13,-313.914"/>
</g>
<!-- Topic -->
<g id="node22" class="node"><title>Topic</title>
<ellipse fill="none" stroke="black" cx="284.854" cy="-244" rx="30.2342" ry="18"/>
<text text-anchor="middle" x="284.854" y="-239.8" font-family="Times,serif" font-size="14.00">Topic</text>
</g>
<!-- Project&#45;&gt;Topic -->
<g id="edge17" class="edge"><title>Project&#45;&gt;Topic</title>
<path fill="none" stroke="#8aadf9" d="M618.961,-380.749C611.872,-374.945 603.535,-369.321 594.854,-366 535.377,-343.246 357.463,-389.14 308.854,-348 287.22,-329.69 282.95,-296.013 282.969,-272.158"/>
<ellipse fill="none" stroke="#8aadf9" cx="622.072" cy="-383.447" rx="4.00002" ry="4.00002"/>
<polygon fill="#8aadf9" stroke="#8aadf9" points="282.974,-271.975 287.731,-262.095 283.103,-266.977 283.233,-261.979 283.233,-261.979 283.233,-261.979 283.103,-266.977 278.734,-261.862 282.974,-271.975 282.974,-271.975"/>
</g>
<!-- Project&#45;&gt;User -->
<g id="edge9" class="edge"><title>Project&#45;&gt;User</title>
<path fill="none" stroke="#2c0da7" d="M617.207,-379.314C610.516,-374.024 602.832,-369.037 594.854,-366 532.022,-342.082 348.255,-386.088 292.854,-348 250.78,-319.074 241.571,-254.795 239.879,-218.086"/>
<polygon fill="#2c0da7" stroke="#2c0da7" points="617.494,-379.56 622.177,-389.475 621.297,-382.806 625.099,-386.053 625.099,-386.053 625.099,-386.053 621.297,-382.806 628.021,-382.631 617.494,-379.56 617.494,-379.56"/>
<polygon fill="#2c0da7" stroke="#2c0da7" points="239.879,-218.076 244.072,-207.943 239.726,-213.079 239.574,-208.081 239.574,-208.081 239.574,-208.081 239.726,-213.079 235.076,-208.218 239.879,-218.076 239.879,-218.076"/>
</g>
<!-- Project&#45;&gt;Attachinary::File -->
<g id="edge22" class="edge"><title>Project&#45;&gt;Attachinary::File</title>
<path fill="none" stroke="#0c7ce9" d="M660.168,-380.626C667.093,-374.816 675.27,-369.22 683.854,-366 732.058,-347.918 1095.56,-352.464 1146.85,-348 1261.83,-337.994 1401.85,-414.407 1401.85,-299 1401.85,-299 1401.85,-299 1401.85,-103 1401.85,-60.05 1115.01,-34.1875 972.837,-24.0065"/>
<ellipse fill="none" stroke="#0c7ce9" cx="657.17" cy="-383.298" rx="4.00002" ry="4.00002"/>
<polygon fill="#0c7ce9" stroke="#0c7ce9" points="972.417,-23.9769 962.759,-18.7828 967.429,-23.6243 962.442,-23.2716 962.442,-23.2716 962.442,-23.2716 967.429,-23.6243 962.125,-27.7604 972.417,-23.9769 972.417,-23.9769"/>
<text text-anchor="middle" x="1436.46" y="-185.8" font-family="Times,serif" font-size="14.00">picture_files</text>
</g>
<!-- PublicActivity::Activity -->
<g id="node25" class="node"><title>PublicActivity::Activity</title>
<ellipse fill="none" stroke="black" cx="567.854" cy="-104" rx="95.6759" ry="18"/>
<text text-anchor="middle" x="567.854" y="-99.8" font-family="Times,serif" font-size="14.00">PublicActivity::Activity</text>
</g>
<!-- Project&#45;&gt;PublicActivity::Activity -->
<g id="edge7" class="edge"><title>Project&#45;&gt;PublicActivity::Activity</title>
<path fill="none" stroke="#9c2bfa" d="M633.72,-376.239C620.263,-320.821 588.249,-188.985 574.412,-132.004"/>
<ellipse fill="none" stroke="#9c2bfa" cx="634.728" cy="-380.39" rx="4.00001" ry="4.00001"/>
<polygon fill="#9c2bfa" stroke="#9c2bfa" points="574.408,-131.988 576.421,-121.208 573.228,-127.129 572.048,-122.27 572.048,-122.27 572.048,-122.27 573.228,-127.129 567.675,-123.332 574.408,-131.988 574.408,-131.988"/>
<text text-anchor="middle" x="630.123" y="-239.8" font-family="Times,serif" font-size="14.00">activities</text>
</g>
<!-- Issue -->
<g id="node20" class="node"><title>Issue</title>
<ellipse fill="none" stroke="black" cx="166.854" cy="-190" rx="28.0651" ry="18"/>
<text text-anchor="middle" x="166.854" y="-185.8" font-family="Times,serif" font-size="14.00">Issue</text>
</g>
<!-- Issue&#45;&gt;Comment -->
<g id="edge23" class="edge"><title>Issue&#45;&gt;Comment</title>
<path fill="none" stroke="#dc3274" d="M193.802,-172.831C216.686,-159.101 249.604,-139.35 274.023,-124.699"/>
<ellipse fill="none" stroke="#dc3274" cx="190.343" cy="-174.907" rx="4.00002" ry="4.00002"/>
<polygon fill="#dc3274" stroke="#dc3274" points="274.026,-124.697 284.916,-123.411 278.313,-122.125 282.6,-119.552 282.6,-119.552 282.6,-119.552 278.313,-122.125 280.285,-115.694 274.026,-124.697 274.026,-124.697"/>
</g>
<!-- PullRequest -->
<g id="node21" class="node"><title>PullRequest</title>
<ellipse fill="none" stroke="black" cx="337.854" cy="-190" rx="52.7038" ry="18"/>
<text text-anchor="middle" x="337.854" y="-185.8" font-family="Times,serif" font-size="14.00">PullRequest</text>
</g>
<!-- PullRequest&#45;&gt;Comment -->
<g id="edge24" class="edge"><title>PullRequest&#45;&gt;Comment</title>
<path fill="none" stroke="#6e2b0f" d="M348.027,-164.365C349.877,-156.342 350.285,-147.561 346.854,-140 344.566,-134.958 341.154,-130.357 337.269,-126.267"/>
<ellipse fill="none" stroke="#6e2b0f" cx="346.904" cy="-168.221" rx="4.00001" ry="4.00001"/>
<polygon fill="#6e2b0f" stroke="#6e2b0f" points="337.256,-126.255 332.961,-116.166 333.582,-122.864 329.908,-119.472 329.908,-119.472 329.908,-119.472 333.582,-122.864 326.856,-122.779 337.256,-126.255 337.256,-126.255"/>
</g>
<!-- Topic&#45;&gt;Comment -->
<g id="edge25" class="edge"><title>Topic&#45;&gt;Comment</title>
<path fill="none" stroke="#12a92e" d="M313.804,-227.944C315.496,-227.247 317.187,-226.592 318.854,-226 353.607,-213.661 376.779,-236.767 399.854,-208 424.661,-177.075 379.151,-143.349 343.472,-123.201"/>
<ellipse fill="none" stroke="#12a92e" cx="310.111" cy="-229.588" rx="4.00002" ry="4.00002"/>
<polygon fill="#12a92e" stroke="#12a92e" points="343.435,-123.18 336.822,-114.433 339.049,-120.78 334.662,-118.381 334.662,-118.381 334.662,-118.381 339.049,-120.78 332.502,-122.328 343.435,-123.18 343.435,-123.18"/>
</g>
<!-- User&#45;&gt;Attendee -->
<g id="edge30" class="edge"><title>User&#45;&gt;Attendee</title>
<path fill="none" stroke="#b55d8e" d="M220.547,-167.661C209.779,-155.759 196.343,-140.909 185.255,-128.654"/>
<ellipse fill="none" stroke="#b55d8e" cx="223.583" cy="-171.016" rx="4.00002" ry="4.00002"/>
<polygon fill="#b55d8e" stroke="#b55d8e" points="185.068,-128.447 181.696,-118.012 181.714,-124.739 178.359,-121.032 178.359,-121.032 178.359,-121.032 181.714,-124.739 175.022,-124.051 185.068,-128.447 185.068,-128.447"/>
</g>
<!-- User&#45;&gt;Comment -->
<g id="edge28" class="edge"><title>User&#45;&gt;Comment</title>
<path fill="none" stroke="#38b316" d="M253.973,-166.234C259.538,-157.76 266.189,-148.212 272.854,-140 276.024,-136.095 279.552,-132.118 283.103,-128.313"/>
<ellipse fill="none" stroke="#38b316" cx="251.745" cy="-169.686" rx="4.00002" ry="4.00002"/>
<polygon fill="#38b316" stroke="#38b316" points="283.377,-128.028 293.554,-123.944 286.845,-124.425 290.312,-120.823 290.312,-120.823 290.312,-120.823 286.845,-124.425 287.07,-117.702 283.377,-128.028 283.377,-128.028"/>
</g>
<!-- User&#45;&gt;Mention -->
<g id="edge29" class="edge"><title>User&#45;&gt;Mention</title>
<path fill="none" stroke="#f510cf" d="M242.86,-163.45C246.575,-131.873 252.869,-78.372 256.666,-46.0979"/>
<ellipse fill="none" stroke="#f510cf" cx="242.349" cy="-167.791" rx="4.00001" ry="4.00001"/>
<polygon fill="#f510cf" stroke="#f510cf" points="256.682,-45.9604 262.32,-36.5547 257.267,-40.9947 257.851,-36.0289 257.851,-36.0289 257.851,-36.0289 257.267,-40.9947 253.382,-35.5031 256.682,-45.9604 256.682,-45.9604"/>
</g>
<!-- User&#45;&gt;ProjectUser -->
<g id="edge27" class="edge"><title>User&#45;&gt;ProjectUser</title>
<path fill="none" stroke="#e807f0" d="M211.196,-175.385C208.717,-174.232 206.244,-173.091 203.854,-172 166.332,-154.874 123.293,-135.972 92.613,-122.624"/>
<ellipse fill="none" stroke="#e807f0" cx="214.954" cy="-177.144" rx="4.00002" ry="4.00002"/>
<polygon fill="#e807f0" stroke="#e807f0" points="92.2806,-122.479 84.9022,-114.367 87.6947,-120.487 83.1089,-118.494 83.1089,-118.494 83.1089,-118.494 87.6947,-120.487 81.3156,-122.621 92.2806,-122.479 92.2806,-122.479"/>
</g>
<!-- User&#45;&gt;PublicActivity::Activity -->
<g id="edge26" class="edge"><title>User&#45;&gt;PublicActivity::Activity</title>
<path fill="none" stroke="#89c700" d="M268.112,-174.965C270.7,-173.89 273.307,-172.882 275.854,-172 315.754,-158.183 422.499,-134.942 495.249,-119.788"/>
<ellipse fill="none" stroke="#89c700" cx="264.136" cy="-176.718" rx="4.00002" ry="4.00002"/>
<polygon fill="#89c700" stroke="#89c700" points="495.487,-119.739 506.193,-122.112 500.383,-118.722 505.278,-117.706 505.278,-117.706 505.278,-117.706 500.383,-118.722 504.363,-113.3 495.487,-119.739 495.487,-119.739"/>
<text text-anchor="middle" x="423.123" y="-142.8" font-family="Times,serif" font-size="14.00">activities</text>
</g>
</g>
</svg>
